<?xml version="1.0" standalone="no"?>
<!DOCTYPE svg PUBLIC "-//W3C//DTD SVG 20010904//EN"
 "http://www.w3.org/TR/2001/REC-SVG-20010904/DTD/svg10.dtd">
<svg version="1.0" xmlns="http://www.w3.org/2000/svg"
 width="500.000000pt" height="500.000000pt" viewBox="0 0 500.000000 500.000000"
 preserveAspectRatio="xMidYMid meet">
<metadata>
Created by potrace 1.11, written by Peter Selinger 2001-2013
</metadata>
<g transform="translate(0.000000,500.000000) scale(0.100000,-0.100000)"
fill="#000000" stroke="none">
<path d="M3134 4092 c-44 -35 -51 -97 -16 -136 19 -21 19 -22 -15 -176 -14
-63 -27 -126 -30 -140 -2 -14 -10 -53 -18 -86 -8 -34 -16 -74 -19 -89 -6 -33
-10 -38 -34 -40 -103 -11 -213 -44 -319 -98 l-63 -31 -62 23 c-139 52 -295
102 -357 116 -114 25 -133 27 -273 30 -115 3 -147 0 -204 -17 -80 -24 -168
-71 -189 -101 -69 -98 102 -391 446 -767 40 -43 73 -87 74 -97 5 -56 17 -157
20 -175 3 -12 7 -49 10 -82 3 -34 7 -68 10 -76 2 -8 7 -42 10 -75 23 -226 24
-229 99 -219 28 3 54 8 58 10 4 3 11 -1 17 -8 6 -7 34 -42 62 -78 29 -36 71
-83 95 -106 49 -45 53 -54 24 -54 -25 0 -25 0 -16 -110 3 -41 9 -104 11 -140
11 -135 10 -131 63 -128 l47 3 -2 68 c-1 37 0 67 2 67 2 0 18 -26 36 -57 40
-71 45 -74 89 -68 19 2 39 4 43 5 8 0 2 135 -8 198 -2 12 0 22 5 22 4 0 11
-21 15 -47 9 -61 28 -103 65 -138 23 -22 37 -27 79 -27 77 1 106 26 135 116 9
26 13 19 20 -38 8 -53 13 -69 24 -62 4 2 47 7 95 11 49 4 96 8 105 10 13 1 17
13 18 51 1 44 3 49 25 52 13 2 46 10 72 17 l48 14 -7 -32 c-4 -18 -8 -43 -8
-57 -1 -23 2 -25 49 -25 67 -1 174 11 182 19 10 10 4 79 -8 91 -5 5 -25 8 -45
6 -32 -2 -35 -1 -25 16 22 38 50 63 64 57 8 -3 17 -23 20 -44 6 -50 42 -109
74 -121 57 -22 134 13 147 67 9 33 18 30 55 -13 28 -33 36 -36 80 -37 31 0 56
5 68 15 11 10 32 14 53 12 82 -8 189 -5 242 6 179 38 251 200 169 379 -19 40
-32 73 -30 75 2 1 22 11 43 22 64 33 109 111 130 225 2 14 12 61 21 105 9 44
19 91 21 105 3 14 7 39 11 55 9 41 6 24 57 273 25 123 46 229 46 237 0 26 -30
46 -63 41 -18 -3 -52 -8 -77 -11 -51 -6 -67 -18 -73 -60 -3 -16 -16 -95 -31
-175 -14 -80 -28 -161 -31 -180 -8 -49 -12 -49 -33 1 -18 42 -32 73 -90 204
-15 33 -38 82 -52 110 l-25 50 -78 -3 c-133 -4 -141 -20 -76 -153 269 -548
270 -549 259 -591 -11 -40 -41 -77 -62 -79 -7 0 -21 -2 -31 -4 -9 -2 -23 2
-30 8 -6 7 -43 39 -82 72 -38 33 -73 64 -76 69 -7 9 -25 161 -35 281 -8 107
-32 229 -61 307 l-26 71 60 56 c33 31 120 112 193 181 140 132 164 152 172
144 11 -11 50 -12 76 -3 32 11 62 56 62 92 0 33 -43 83 -77 90 -35 7 -65 -5
-96 -39 -25 -27 -27 -27 -81 -15 -154 34 -317 222 -344 394 -9 55 -8 59 12 67
76 29 84 140 12 174 -60 28 -136 -11 -136 -71 0 -13 -2 -23 -4 -23 -3 0 -58
-14 -123 -31 -141 -36 -254 -47 -309 -29 -45 14 -134 67 -182 108 -30 25 -32
30 -22 56 13 36 -2 89 -33 111 -29 20 -87 19 -113 -3z m-1051 -876 c77 -14
142 -35 239 -79 l68 -30 -30 -33 c-67 -76 -165 -245 -183 -315 -3 -11 -10 -20
-16 -18 -27 10 -226 218 -322 337 -19 24 -47 95 -42 108 6 16 27 24 83 31 25
3 46 7 48 8 4 3 127 -4 155 -9z m2144 -1354 c31 -40 53 -75 50 -78 -4 -4 -32
-8 -64 -11 -105 -7 -105 -7 -100 -63 3 -28 3 -50 1 -50 -1 0 -13 18 -25 39
-23 41 -54 61 -95 61 -29 0 -84 -26 -84 -40 0 -6 -7 -10 -15 -10 -20 0 -19 7
6 33 38 40 106 141 145 215 l39 74 43 -49 c23 -26 68 -81 99 -121z m-1607
-356 c0 -18 -3 -17 -20 9 -26 39 -26 53 0 30 11 -10 20 -28 20 -39z m1160 -52
c0 -8 -4 -14 -10 -14 -5 0 -10 2 -10 4 0 2 -3 12 -6 20 -5 12 -2 15 10 10 9
-3 16 -12 16 -20z m-862 -39 c2 -2 2 -11 -2 -20 -9 -24 -47 -14 -58 14 -8 22
-7 23 24 17 17 -3 34 -8 36 -11z"/>
<path d="M1335 3279 c-22 -5 -58 -11 -80 -14 -113 -16 -165 -28 -178 -43 -13
-15 -136 -300 -330 -762 -33 -80 -66 -151 -73 -159 -26 -29 -40 -4 -57 96 -9
54 -19 109 -22 123 -7 34 -12 63 -25 140 -14 93 -20 122 -25 146 -3 12 -7 39
-11 60 -21 140 -45 240 -61 252 -20 14 -62 15 -118 3 -22 -5 -61 -12 -88 -15
-116 -15 -130 -38 -102 -166 3 -14 7 -36 9 -50 3 -14 18 -106 35 -205 30 -171
34 -198 46 -262 3 -16 10 -55 15 -88 14 -86 19 -114 30 -170 5 -27 12 -67 16
-89 3 -21 8 -48 10 -60 4 -21 31 -177 39 -226 14 -86 36 -207 40 -220 2 -8 7
-35 10 -60 3 -25 8 -52 10 -60 2 -8 6 -33 9 -55 4 -22 8 -51 11 -65 8 -42 15
-83 21 -120 3 -19 11 -66 19 -105 8 -38 17 -94 21 -123 4 -29 16 -64 27 -78
21 -27 24 -27 147 -8 153 23 180 36 180 83 0 14 -18 125 -39 246 -22 121 -45
255 -52 297 l-13 77 34 73 c111 243 120 260 137 256 15 -3 514 -779 542 -843
12 -27 35 -46 58 -47 21 -1 135 12 143 17 3 1 28 6 55 9 113 14 152 26 165 51
7 13 10 34 6 47 -3 13 -107 172 -230 353 -124 182 -278 409 -343 505 -64 96
-121 177 -125 178 -4 2 -8 7 -8 12 0 4 -20 37 -44 73 l-45 66 63 138 c64 140
89 194 127 281 22 49 29 65 135 298 35 78 64 153 64 167 0 50 -52 65 -155 46z"/>
<path d="M1612 2559 c-44 -13 -71 -59 -66 -110 5 -38 5 -39 -21 -29 -71 27
-128 -3 -154 -79 -25 -76 -4 -131 59 -153 l28 -9 -35 -33 c-43 -39 -47 -88
-12 -138 57 -80 105 -97 164 -58 39 26 45 25 45 -7 0 -32 24 -65 58 -82 26
-14 103 -6 144 15 31 16 52 70 42 110 -6 25 -5 27 17 19 43 -15 100 -8 122 14
27 26 55 101 51 136 -3 32 -27 61 -68 82 l-30 15 26 20 c15 10 32 34 38 54 10
30 9 39 -13 77 -52 88 -103 109 -169 70 -41 -24 -48 -21 -48 17 0 16 -11 37
-28 53 -30 29 -84 35 -150 16z"/>
<path d="M2335 1610 c-29 -5 -30 -7 -29 -60 0 -62 13 -227 21 -280 6 -44 13
-48 66 -41 l42 6 -3 64 c-2 35 -6 73 -8 84 -2 12 -6 62 -10 111 -8 123 -13
129 -79 116z"/>
<path d="M2124 1594 c-54 -18 -84 -55 -84 -105 0 -73 39 -114 129 -139 17 -4
26 -13 26 -26 0 -28 -33 -24 -48 6 -13 24 -25 27 -74 18 -33 -6 -36 -13 -23
-53 18 -54 50 -83 96 -88 86 -9 138 27 153 106 10 56 -12 112 -56 139 -25 16
-26 17 -7 18 49 0 54 58 10 99 -34 32 -76 41 -122 25z m56 -113 c0 -5 -9 -7
-20 -4 -11 3 -20 12 -20 20 0 11 4 11 20 3 11 -6 20 -15 20 -19z"/>
</g>
</svg>
